<svg width="150" height="24" viewBox="0 0 150 24" fill="none" xmlns="http://www.w3.org/2000/svg">
<g clip-path="url(#clip0_4399_22187)">
<path d="M22.8869 7.27441H26.4872L21.2525 23.0036H17.1246L13.2035 11.1292L9.28236 23.0036H5.23469L0 7.27441H3.68229L7.39844 19.2268L11.2946 7.27441H15.2157L19.1618 19.2924L22.8869 7.27441Z" fill="white"/>
<path d="M41.9212 16.4041H30.2469C30.3549 17.2149 30.6608 17.9871 31.1381 18.6532C31.564 19.2348 32.1371 19.694 32.7992 19.9842C33.4747 20.2721 34.2031 20.4169 34.938 20.4095C35.7531 20.4061 36.5611 20.2591 37.3246 19.9753C38.116 19.6884 38.8552 19.2754 39.5133 18.7524L41.2297 21.1982C40.3553 21.9613 39.3359 22.5423 38.2318 22.9067C37.0963 23.2601 35.9122 23.4347 34.7224 23.4242C33.2584 23.4515 31.8126 23.0978 30.5286 22.398C29.3135 21.7214 28.3189 20.7127 27.6626 19.4914C26.9746 18.239 26.6306 16.7916 26.6306 15.1493C26.6015 13.6526 26.945 12.1719 27.6305 10.8391C28.2609 9.62256 29.2257 8.60908 30.4127 7.91654C31.6585 7.20501 33.0756 6.84415 34.5121 6.87266C35.8818 6.84661 37.2306 7.20867 38.4011 7.91654C39.5392 8.62197 40.4545 9.6317 41.0425 10.8302C41.6971 12.169 42.0227 13.6432 41.9925 15.1316C41.9871 15.4524 41.9658 15.8777 41.9212 16.4041ZM38.4546 13.7935C38.2668 12.5671 37.8236 11.6148 37.125 10.9366C36.4263 10.2584 35.5316 9.91866 34.4408 9.91748C33.2621 9.91748 32.318 10.2654 31.6087 10.9614C30.8993 11.6573 30.4454 12.6025 30.2469 13.797L38.4546 13.7935Z" fill="white"/>
<path d="M56.6898 7.93025C57.891 8.64197 58.8764 9.66341 59.5415 10.8864C60.2303 12.1997 60.59 13.6589 60.59 15.14C60.59 16.6211 60.2303 18.0803 59.5415 19.3935C58.8752 20.6223 57.8837 21.6467 56.6743 22.3558C55.4649 23.0649 54.0835 23.4317 52.6796 23.4166C51.6955 23.4357 50.7201 23.2308 49.8279 22.8176C49.0082 22.4234 48.2905 21.8473 47.73 21.1339V23.0054H44.2812V0.575195H47.7318V9.14427C48.2923 8.43082 49.01 7.85481 49.8296 7.46059C50.7219 7.04735 51.6973 6.84245 52.6814 6.86155C54.0907 6.84644 55.4771 7.21609 56.6898 7.93025ZM54.7988 19.5069C55.5172 19.0682 56.0956 18.4358 56.467 17.6832C56.8472 16.8884 57.0445 16.0193 57.0445 15.1391C57.0445 14.2589 56.8472 13.3898 56.467 12.5949C56.0951 11.8427 55.5168 11.2104 54.7988 10.7713C54.0381 10.3328 53.1751 10.1005 52.2959 10.0977C51.4166 10.0949 50.5521 10.3217 49.7886 10.7553C49.0697 11.1903 48.4865 11.8156 48.1043 12.5613C47.7069 13.3631 47.5002 14.2451 47.5002 15.1391C47.5002 16.033 47.7069 16.915 48.1043 17.7169C48.4865 18.4626 49.0697 19.0878 49.7886 19.5229C50.5521 19.9565 51.4166 20.1832 52.2959 20.1804C53.1751 20.1776 54.0381 19.9454 54.7988 19.5069Z" fill="white"/>
<path d="M77.7024 16.4041H66.0282C66.1361 17.2149 66.4421 17.9871 66.9193 18.6531C67.3447 19.2346 67.9172 19.6938 68.5787 19.9841C69.2543 20.2717 69.9826 20.4165 70.7175 20.4095C71.5313 20.4057 72.3381 20.2587 73.1005 19.9753C73.8913 19.6884 74.63 19.2753 75.2874 18.7524L77.0055 21.1982C76.1321 21.9607 75.114 22.5416 74.0112 22.9067C72.8758 23.2605 71.6916 23.4351 70.5018 23.4242C69.0378 23.4513 67.5921 23.0976 66.308 22.398C65.0939 21.7208 64.1 20.7123 63.4438 19.4914C62.7558 18.239 62.4118 16.7916 62.4118 15.1493C62.383 13.6528 62.7258 12.1723 63.4099 10.8391C64.0408 9.62289 65.0055 8.60953 66.1921 7.91654C67.438 7.20508 68.8551 6.84423 70.2915 6.87265C71.6567 6.84615 73.0015 7.20503 74.1698 7.90768C75.3079 8.6131 76.2233 9.62283 76.8113 10.8213C77.465 12.1604 77.7906 13.6345 77.7612 15.1227C77.7684 15.4524 77.7452 15.8777 77.7024 16.4041ZM74.234 13.7935C74.0463 12.5671 73.6031 11.6147 72.9044 10.9365C72.2057 10.2583 71.3146 9.91865 70.2309 9.91747C69.0522 9.91747 68.1082 10.2654 67.3988 10.9613C66.6894 11.6573 66.2355 12.6025 66.0371 13.797L74.234 13.7935Z" fill="white"/>
<path d="M94.1622 23.0036H89.9185L85.9064 17.536L81.9443 23.0036H77.8984L83.8585 14.9751L77.9965 7.27441H82.2402L86.1096 12.5293L89.9737 7.27441H94.0517L88.2074 14.9414L94.1622 23.0036Z" fill="white"/>
<path d="M104.712 6.87207C102.379 6.87207 100.402 7.67138 98.8303 9.24873C97.2583 10.8261 96.4688 12.8093 96.4688 15.1487C96.4688 17.4882 97.2619 19.4714 98.8303 21.0469C100.399 22.6225 102.375 23.4254 104.712 23.4254C107.049 23.4254 109.011 22.6261 110.594 21.0487C112.176 19.4714 112.984 17.4882 112.984 15.1487C112.984 12.8093 112.18 10.8225 110.594 9.24695C109.007 7.67138 107.031 6.87207 104.712 6.87207ZM104.712 21.9774C102.764 21.9774 101.188 21.3429 99.8997 20.0279C98.6111 18.7128 97.9695 17.1213 97.9695 15.1399C97.9695 13.1584 98.6004 11.5669 99.8997 10.2483C101.199 8.92972 102.775 8.29878 104.712 8.29878C106.649 8.29878 108.241 8.93858 109.549 10.2483C110.857 11.558 111.496 13.1655 111.496 15.1381C111.496 17.1107 110.859 18.7181 109.551 20.0261C108.243 21.334 106.658 21.9774 104.712 21.9774Z" fill="white"/>
<path d="M128.724 8.68879C127.441 7.48362 125.694 6.87218 123.518 6.87218C122.063 6.84534 120.634 7.25681 119.418 8.05253C118.769 8.48073 118.199 9.01738 117.734 9.63874V6.98029H116.262V23.2855H117.734V13.8675C117.734 12.2724 118.269 10.9697 119.365 9.89749C120.461 8.82525 121.807 8.30242 123.464 8.30242C125.297 8.30242 126.726 8.79158 127.712 9.75571C128.697 10.7198 129.195 12.0278 129.195 13.7168V23.2872H130.67V13.7168C130.67 11.5936 130.016 9.90105 128.724 8.68879Z" fill="white"/>
<path d="M149.525 14.9896C149.479 12.6856 148.718 10.736 147.263 9.19767C146.581 8.45276 145.748 7.8603 144.819 7.45946C143.889 7.05861 142.885 6.85852 141.872 6.87241C140.8 6.85395 139.736 7.05548 138.746 7.46441C137.756 7.87334 136.862 8.48088 136.119 9.24907C134.557 10.8246 133.766 12.8149 133.766 15.165C133.766 17.547 134.536 19.5408 136.058 21.088C137.58 22.6353 139.544 23.4257 141.888 23.4257C144.561 23.4257 146.816 22.3995 148.581 20.3773L148.839 20.0814L147.875 19.0339L147.547 19.3884C146.851 20.1772 146.014 20.8295 145.077 21.3114C144.091 21.7728 143.011 21.9985 141.922 21.9706C139.984 21.9706 138.43 21.3574 137.167 20.0956C136.013 18.9453 135.384 17.4672 135.27 15.6985H149.384L149.484 15.3936C149.52 15.2626 149.533 15.1267 149.523 14.9913L149.525 14.9896ZM135.304 14.2913C135.437 12.7136 136.139 11.2367 137.279 10.1317C137.876 9.53364 138.59 9.06302 139.377 8.74855C140.164 8.43408 141.006 8.28236 141.854 8.30265C142.656 8.29028 143.452 8.44668 144.189 8.76159C144.926 9.07649 145.588 9.54278 146.132 10.1299C147.222 11.2573 147.879 12.7305 147.987 14.2913H135.304Z" fill="white"/>
</g>
<defs>
<clipPath id="clip0_4399_22187">
<rect width="149.57" height="23.456" fill="white" transform="translate(0 0.272461)"/>
</clipPath>
</defs>
</svg>
