<?xml version="1.0" standalone="no"?>
<!DOCTYPE svg PUBLIC "-//W3C//DTD SVG 20010904//EN"
 "http://www.w3.org/TR/2001/REC-SVG-20010904/DTD/svg10.dtd">
<svg version="1.0" xmlns="http://www.w3.org/2000/svg"
 width="700.000000pt" height="700.000000pt" viewBox="0 0 700.000000 700.000000"
 preserveAspectRatio="xMidYMid meet">
<metadata>
Created by potrace 1.14, written by Peter Selinger 2001-2017
</metadata>
<g transform="translate(0.000000,700.000000) scale(0.100000,-0.100000)"
fill="#000000" stroke="none">
<path d="M2868 6415 c-2 -2 -24 -5 -50 -8 -71 -9 -176 -54 -248 -108 -104 -77
-164 -160 -206 -286 -25 -73 -27 -90 -30 -292 -2 -240 4 -281 59 -353 41 -54
126 -106 187 -114 l45 -6 -1 -266 0 -267 -46 -75 c-24 -41 -56 -95 -70 -120
-25 -46 -278 -486 -316 -550 -11 -19 -29 -51 -40 -70 -11 -19 -54 -96 -97
-170 -90 -154 -474 -821 -514 -891 -51 -89 -313 -544 -322 -559 -5 -8 -33 -58
-63 -110 -29 -52 -77 -135 -106 -185 -89 -152 -107 -188 -128 -250 -126 -373
12 -779 339 -1000 107 -72 242 -125 364 -143 22 -4 875 -6 1895 -6 l1855 0 85
23 c350 94 599 366 653 713 16 106 13 227 -8 318 -14 59 -22 83 -45 139 -15
36 -55 112 -89 169 -33 57 -61 105 -61 107 0 2 -17 32 -38 66 -21 35 -52 89
-69 119 -17 30 -70 123 -118 205 -48 83 -97 168 -110 190 -25 45 -173 302
-201 352 -11 17 -44 76 -75 130 -31 54 -125 217 -209 363 -84 146 -223 387
-308 535 -85 149 -163 284 -173 300 -11 17 -22 37 -26 45 -4 8 -33 59 -65 113
-32 54 -58 100 -58 102 0 2 -19 34 -42 71 l-42 69 -1 266 -1 267 44 6 c92 12
175 75 219 164 28 57 28 58 29 267 1 232 -7 289 -56 393 -59 127 -146 214
-275 277 -49 24 -108 47 -130 51 -34 7 -1330 15 -1337 9z m1057 -2365 c135
-66 194 -237 130 -378 -51 -111 -153 -173 -274 -168 -156 7 -270 120 -277 275
-10 223 217 370 421 271z m159 -2000 c5 0 171 162 369 360 198 198 364 359
369 358 5 -2 16 -15 23 -28 8 -14 36 -63 63 -110 27 -47 116 -200 197 -340 81
-140 156 -271 168 -290 11 -19 31 -55 45 -80 14 -25 60 -103 101 -175 105
-179 114 -200 119 -280 4 -64 1 -75 -30 -135 -38 -74 -105 -131 -176 -151 -65
-18 -3583 -20 -3655 -2 -47 12 -89 36 -135 77 -62 55 -99 199 -72 282 7 21 74
145 148 274 75 129 158 273 185 320 26 47 52 92 58 100 5 8 24 42 43 75 18 33
74 130 123 215 114 198 273 472 443 768 l135 232 735 -735 c404 -404 739 -735
744 -735z"/>
</g>
</svg>
